<?xml version="1.0" encoding="UTF-8" standalone="no"?>
<!-- Created with Inkscape (http://www.inkscape.org/) -->

<svg
   width="56.028366mm"
   height="67.252495mm"
   viewBox="0 0 56.028366 67.252495"
   version="1.1"
   id="svg872"
   inkscape:version="1.4.2 (f4327f4, 2025-05-13)"
   sodipodi:docname="logo-tumb.svg"
   inkscape:export-filename="C:\Users\attila\OneDrive\Documents\iş\kondu\logo\patent-logo-2-4.jpg"
   inkscape:export-xdpi="110.55685"
   inkscape:export-ydpi="110.55685"
   xmlns:inkscape="http://www.inkscape.org/namespaces/inkscape"
   xmlns:sodipodi="http://sodipodi.sourceforge.net/DTD/sodipodi-0.dtd"
   xmlns="http://www.w3.org/2000/svg"
   xmlns:svg="http://www.w3.org/2000/svg"
   xmlns:rdf="http://www.w3.org/1999/02/22-rdf-syntax-ns#"
   xmlns:cc="http://creativecommons.org/ns#"
   xmlns:dc="http://purl.org/dc/elements/1.1/">
  <defs
     id="defs866" />
  <sodipodi:namedview
     id="base"
     pagecolor="#ffffff"
     bordercolor="#666666"
     borderopacity="1.0"
     inkscape:pageopacity="0.0"
     inkscape:pageshadow="2"
     inkscape:zoom="0.70710678"
     inkscape:cx="213.54625"
     inkscape:cy="61.51829"
     inkscape:document-units="mm"
     inkscape:current-layer="g1"
     showgrid="false"
     inkscape:snap-text-baseline="false"
     inkscape:window-width="2560"
     inkscape:window-height="1009"
     inkscape:window-x="-8"
     inkscape:window-y="-8"
     inkscape:window-maximized="1"
     inkscape:showpageshadow="2"
     inkscape:pagecheckerboard="0"
     inkscape:deskcolor="#d1d1d1"
     showguides="true" />
  <metadata
     id="metadata869">
    <rdf:RDF>
      <cc:Work
         rdf:about="">
        <dc:format>image/svg+xml</dc:format>
        <dc:type
           rdf:resource="http://purl.org/dc/dcmitype/StillImage" />
      </cc:Work>
    </rdf:RDF>
  </metadata>
  <g
     inkscape:label="Layer 1"
     inkscape:groupmode="layer"
     id="layer1"
     transform="translate(-12.006117,-130.80957)">
    <g
       id="g1"
       transform="translate(0.40398548,61.373766)">
      <path
         style="fill:#0094d8;fill-opacity:1;stroke:none;stroke-width:0.586377px;stroke-linecap:butt;stroke-linejoin:miter;stroke-opacity:1"
         d="m 67.554646,69.435849 c 0,0 -2.1879,2.36845 -5.15355,3.7903 -3.12255,1.49708 -11.23562,5.10182 -15.31351,8.35475 -4.07791,3.25294 -6.99325,7.04345 -9.18555,10.34682 -2.19229,3.30336 -3.35753,6.57621 -4.55388,9.720691 -1.19635,3.14448 -2.04583,6.57507 -2.69458,9.05273 -0.64873,2.47768 -1.25537,4.04385 -2.27537,6.19812 -0.93606,1.97695 -1.96768,4.17737 -3.20165,5.992 -1.26266,1.85684 -2.56015,3.57988 -4.08207,5.15844 -1.78467,1.85111 -5.87015,5.00466 -5.87015,5.00466 0,0 5.68411,-3.51341 8.26493,-5.6203 1.88939,-1.54244 3.71192,-3.20558 5.24238,-5.10469 1.03973,-1.2902 1.90424,-2.72844 2.63176,-4.21716 0.96387,-1.97239 1.72201,-4.10782 2.26561,-6.18395 0.70053,-2.67547 1.56565,-5.2785 2.35097,-7.94087 2.38408,-8.082351 7.48332,-14.219001 13.35896,-19.226121 3.1386,-2.67469 9.25679,-4.99918 11.06815,-5.24321 0,0 -1.17606,2.75624 -2.76776,4.49404 -1.59172,1.73778 -4.97124,4.38924 -7.10061,5.24963 2.21089,0.44703 5.83578,-0.89241 5.83578,-0.89241 0,0 -2.35093,2.46627 -2.67562,2.73104 -0.36042,0.26434 -3.99154,3.25761 -4.82936,3.51183 1.49661,0.40041 7.21479,0.42767 7.21479,0.42767 0,0 -3.64669,3.25659 -6.23721,4.76116 0.39311,0.004 7.27115,-1.57266 11.6143,-6.15749 1.24397,-1.31318 1.11048,-3.36195 1.11048,-3.36195 0,0 -1.22569,1.72153 -3.38339,2.10905 -3.47955,0.62493 -4.36013,-0.0496 -4.36013,-0.0496 0,0 3.04775,-0.89593 8.13489,-5.04651 3.87662,-3.16291 3.72038,-6.5538 3.72038,-6.5538 0,0 -0.31724,1.27009 -2.31558,2.46645 -1.58717,0.95019 -4.73587,1.59498 -4.73587,1.59498 0,0 1.91377,-1.38993 5.30472,-5.90296 3.39095,-4.51304 2.61774,-9.46339 2.61774,-9.46339 z"
         id="path8306-3-5-3-5-7-4-9-2-4-2"
         inkscape:connector-curvature="0"
         sodipodi:nodetypes="cscsccssacaaassaccccccccscscscsczcc"
         inkscape:export-xdpi="96"
         inkscape:export-ydpi="96"
         inkscape:export-filename="C:\Users\attil\v2.png"
         inkscape:transform-center-x="-26.144356"
         inkscape:transform-center-y="-31.75279" />
      <path
         id="rect1"
         style="fill:none;stroke:#0094d8;stroke-width:3.62881;stroke-dasharray:none"
         d="m 40.840096,110.94913 v 23.92476 H 13.416536 V 94.954379 h 15.9275"
         sodipodi:nodetypes="ccccc" />
    </g>
  </g>
</svg>
