<?xml version="1.0" encoding="UTF-8" standalone="no"?>
<!-- Created with Inkscape (http://www.inkscape.org/) -->

<svg
   width="189.19203mm"
   height="67.252464mm"
   viewBox="0 0 189.19203 67.252464"
   version="1.1"
   id="svg872"
   inkscape:version="1.4.2 (f4327f4, 2025-05-13)"
   sodipodi:docname="logo.svg"
   inkscape:export-filename="C:\Users\attila\OneDrive\Documents\iş\kondu\logo\patent-logo-2-4.jpg"
   inkscape:export-xdpi="110.55685"
   inkscape:export-ydpi="110.55685"
   xmlns:inkscape="http://www.inkscape.org/namespaces/inkscape"
   xmlns:sodipodi="http://sodipodi.sourceforge.net/DTD/sodipodi-0.dtd"
   xmlns="http://www.w3.org/2000/svg"
   xmlns:svg="http://www.w3.org/2000/svg"
   xmlns:rdf="http://www.w3.org/1999/02/22-rdf-syntax-ns#"
   xmlns:cc="http://creativecommons.org/ns#"
   xmlns:dc="http://purl.org/dc/elements/1.1/">
  <defs
     id="defs866" />
  <sodipodi:namedview
     id="base"
     pagecolor="#ffffff"
     bordercolor="#666666"
     borderopacity="1.0"
     inkscape:pageopacity="0.0"
     inkscape:pageshadow="2"
     inkscape:zoom="0.70710678"
     inkscape:cx="213.54625"
     inkscape:cy="61.51829"
     inkscape:document-units="mm"
     inkscape:current-layer="g1"
     showgrid="false"
     inkscape:snap-text-baseline="false"
     inkscape:window-width="2560"
     inkscape:window-height="1009"
     inkscape:window-x="-8"
     inkscape:window-y="-8"
     inkscape:window-maximized="1"
     inkscape:showpageshadow="2"
     inkscape:pagecheckerboard="0"
     inkscape:deskcolor="#d1d1d1"
     showguides="true" />
  <metadata
     id="metadata869">
    <rdf:RDF>
      <cc:Work
         rdf:about="">
        <dc:format>image/svg+xml</dc:format>
        <dc:type
           rdf:resource="http://purl.org/dc/dcmitype/StillImage" />
      </cc:Work>
    </rdf:RDF>
  </metadata>
  <g
     inkscape:label="Layer 1"
     inkscape:groupmode="layer"
     id="layer1"
     transform="translate(-12.006117,-130.8096)">
    <g
       id="g1"
       transform="translate(0.40398548,61.373766)">
      <path
         style="fill:#0094d8;fill-opacity:1;stroke:none;stroke-width:0.586377px;stroke-linecap:butt;stroke-linejoin:miter;stroke-opacity:1"
         d="m 67.554646,69.435849 c 0,0 -2.1879,2.36845 -5.15355,3.7903 -3.12255,1.49708 -11.23562,5.10182 -15.31351,8.35475 -4.07791,3.25294 -6.99325,7.04345 -9.18555,10.34682 -2.19229,3.30336 -3.35753,6.57621 -4.55388,9.720691 -1.19635,3.14448 -2.04583,6.57507 -2.69458,9.05273 -0.64873,2.47768 -1.25537,4.04385 -2.27537,6.19812 -0.93606,1.97695 -1.96768,4.17737 -3.20165,5.992 -1.26266,1.85684 -2.56015,3.57988 -4.08207,5.15844 -1.78467,1.85111 -5.87015,5.00466 -5.87015,5.00466 0,0 5.68411,-3.51341 8.26493,-5.6203 1.88939,-1.54244 3.71192,-3.20558 5.24238,-5.10469 1.03973,-1.2902 1.90424,-2.72844 2.63176,-4.21716 0.96387,-1.97239 1.72201,-4.10782 2.26561,-6.18395 0.70053,-2.67547 1.56565,-5.2785 2.35097,-7.94087 2.38408,-8.082351 7.48332,-14.219001 13.35896,-19.226121 3.1386,-2.67469 9.25679,-4.99918 11.06815,-5.24321 0,0 -1.17606,2.75624 -2.76776,4.49404 -1.59172,1.73778 -4.97124,4.38924 -7.10061,5.24963 2.21089,0.44703 5.83578,-0.89241 5.83578,-0.89241 0,0 -2.35093,2.46627 -2.67562,2.73104 -0.36042,0.26434 -3.99154,3.25761 -4.82936,3.51183 1.49661,0.40041 7.21479,0.42767 7.21479,0.42767 0,0 -3.64669,3.25659 -6.23721,4.76116 0.39311,0.004 7.27115,-1.57266 11.6143,-6.15749 1.24397,-1.31318 1.11048,-3.36195 1.11048,-3.36195 0,0 -1.22569,1.72153 -3.38339,2.10905 -3.47955,0.62493 -4.36013,-0.0496 -4.36013,-0.0496 0,0 3.04775,-0.89593 8.13489,-5.04651 3.87662,-3.16291 3.72038,-6.5538 3.72038,-6.5538 0,0 -0.31724,1.27009 -2.31558,2.46645 -1.58717,0.95019 -4.73587,1.59498 -4.73587,1.59498 0,0 1.91377,-1.38993 5.30472,-5.90296 3.39095,-4.51304 2.61774,-9.46339 2.61774,-9.46339 z"
         id="path8306-3-5-3-5-7-4-9-2-4-2"
         inkscape:connector-curvature="0"
         sodipodi:nodetypes="cscsccssacaaassaccccccccscscscsczcc"
         inkscape:export-xdpi="96"
         inkscape:export-ydpi="96"
         inkscape:export-filename="C:\Users\attil\v2.png"
         inkscape:transform-center-x="-26.144356"
         inkscape:transform-center-y="-31.75279" />
      <path
         d="m 71.766866,136.6883 h -5.06189 l -11.98411,-11.54601 c -0.44706,-0.43415 -0.72107,-0.72749 -0.82202,-0.88004 h -0.0865 v 12.42605 h -3.63417 v -25.74049 h 3.63417 v 12.36401 h 0.0865 c 0.2019,-0.25814 0.4759,-0.54563 0.82201,-0.86243 l 9.70731,-11.50158 h 4.52108 l -11.41621,12.61042 z m 18.76263,0 c -4.3985,0 -7.44446,-1.17925 -10.09798,-3.53773 -2.6391,-2.35848 -3.95865,-5.08323 -3.95865,-8.8615 0,-4.05987 1.34839,-7.29839 4.04518,-9.71555 2.69679,-2.41715 5.88695,-3.62571 10.53062,-3.62571 4.283133,0 7.249763,1.17336 9.860014,3.5201 2.62469,2.34675 3.93703,5.41513 3.93703,9.20513 0,4.11855 -1.34119,7.03105 -4.02355,9.42473 -2.682371,2.39368 -5.793221,3.59053 -10.292664,3.59053 z m 0.25958,-23.06521 c -3.25922,0 -5.42547,0.9563 -7.45887,2.86889 -2.03341,1.91261 -3.05011,4.42363 -3.05011,7.53308 0,3.10945 0.98786,5.27098 2.96358,7.17185 1.99014,1.88913 4.09871,2.8337 7.28582,2.8337 3.40342,0 5.605733,-0.9035 7.567033,-2.7105 1.961301,-1.807 2.941941,-3.992 2.941941,-7.24225 0,-3.33238 -0.95179,-5.90794 -2.855421,-7.72667 -1.9036,-1.81874 -4.048233,-2.7281 -7.393973,-2.7281 z m 46.586834,23.06521 h -4.45619 l -15.96438,-20.11752 c -0.4038,-0.50455 -0.7355,-1.03257 -0.99509,-1.58405 h -0.12978 c 0.11536,0.53975 0.17305,1.69552 0.17305,3.46732 v 18.23425 h -3.63418 v -25.74049 h 4.71577 l 15.53176,20.30189 c 0.64898,0.82137 1.06719,1.38459 1.25466,1.68966 h 0.0866 c -0.14422,-0.72749 -0.21631,-1.9654 -0.21631,-3.71373 v -18.27782 h 3.63416 z m 7.65358,0 v -25.74049 h 8.56627 c 10.93136,0 16.39705,4.60213 16.39705,12.80402 0,3.89562 -1.52144,7.02853 -4.56435,9.39874 -3.02848,2.35848 -7.08808,3.53773 -12.17881,3.53773 z m 3.63418,-23.06521 V 134.013 h 4.62923 c 4.06681,0 7.2323,-0.8859 9.49646,-2.65769 2.26414,-1.7718 3.39622,-4.28282 3.39622,-7.53308 0,-6.46529 -4.22545,-10.19914 -12.67635,-10.19914 z m 52.13049,12.35564 c 0,7.08719 -3.92977,10.63078 -11.78941,10.63078 -7.52793,0 -11.29189,-3.40865 -11.29189,-10.22596 v -15.43574 h 3.63418 v 15.24212 c 0,5.17459 2.68236,7.76189 8.04707,7.76189 5.17727,0 7.7659,-2.49929 7.7659,-7.49787 v -15.50614 h 3.63415 z"
         id="text1427"
         style="font-size:41.6684px;line-height:1.25;font-family:'Yu Gothic UI';-inkscape-font-specification:'Yu Gothic UI, Normal';letter-spacing:0px;word-spacing:0px;fill:#0094d8;stroke-width:0.208132"
         aria-label="KONDU"
         sodipodi:nodetypes="ccccccccccccccccscssscsssssscssssscccccscccccccscccccsscscccsssscsssccsssccs" />
      <path
         id="rect1"
         style="fill:none;stroke:#0094d8;stroke-width:3.62881;stroke-dasharray:none"
         d="m 40.840096,110.94913 v 23.92476 H 13.416536 V 94.954379 h 15.9275"
         sodipodi:nodetypes="ccccc" />
    </g>
  </g>
</svg>
