<?xml version="1.0" encoding="UTF-8" standalone="no"?>
<!-- Created with Inkscape (http://www.inkscape.org/) -->

<svg
   width="430mm"
   height="180mm"
   viewBox="0 0 430 180"
   version="1.1"
   id="svg1"
   sodipodi:docname="logo final.svg"
   inkscape:version="1.4.2 (f4327f4, 2025-05-13)"
   xmlns:inkscape="http://www.inkscape.org/namespaces/inkscape"
   xmlns:sodipodi="http://sodipodi.sourceforge.net/DTD/sodipodi-0.dtd"
   xmlns="http://www.w3.org/2000/svg"
   xmlns:svg="http://www.w3.org/2000/svg">
  <sodipodi:namedview
     id="namedview1"
     pagecolor="#ffffff"
     bordercolor="#000000"
     borderopacity="0.25"
     inkscape:showpageshadow="2"
     inkscape:pageopacity="0.0"
     inkscape:pagecheckerboard="0"
     inkscape:deskcolor="#d1d1d1"
     inkscape:document-units="mm"
     inkscape:zoom="0.70710678"
     inkscape:cx="685.89357"
     inkscape:cy="309.00566"
     inkscape:window-width="2560"
     inkscape:window-height="1009"
     inkscape:window-x="-8"
     inkscape:window-y="-8"
     inkscape:window-maximized="1"
     inkscape:current-layer="g1" />
  <defs
     id="defs1" />
  <g
     inkscape:label="Katman 1"
     inkscape:groupmode="layer"
     id="layer1"
     transform="translate(-0.04478287,4.0264286e-4)">
    <g
       id="g1"
       transform="matrix(2.0873607,0,0,2.0873607,0.04478287,-4.0264286e-4)">
      <path
         id="rect6-7-1-2-6-8"
         style="fill:#0094d8;fill-opacity:1;stroke:none;stroke-width:0.354457"
         d="M 0,28.744433 V 86.233299 H 4.7907389 38.325911 43.11665 V 81.44256 57.488866 H 38.325911 V 81.44256 H 4.7907389 V 33.535172 H 28.744433 V 28.744433 H 4.7907389 Z"
         sodipodi:nodetypes="ccccccccccccccc" />
      <path
         style="fill:#0094d8;fill-opacity:1;stroke:none;stroke-width:0.826514px;stroke-linecap:butt;stroke-linejoin:miter;stroke-opacity:1"
         d="m 86.233299,1.9289568e-4 c 0,0 -3.487821,3.02502020432 -8.083909,4.82796620432 -4.839182,1.8983037 -17.410641,6.4644889 -23.73894,10.6107129 -6.328227,4.146273 -10.862034,8.992401 -14.274387,13.218458 -3.412266,4.226057 -5.235922,8.420968 -7.106841,12.450797 -1.870911,4.02983 -3.20726,8.430024 -4.226899,11.607522 -1.019559,3.177642 -1.968048,5.184721 -3.559774,7.943936 -1.460685,2.532221 -3.070667,5.350615 -4.991013,7.671852 -1.965015,2.375144 -4.038873,4.599259 -6.347279,6.593965 -2.825826,2.441811 -9.1135181,6.517158 -9.1135181,6.517158 0,0 8.7526371,-4.529632 12.8213561,-7.288985 2.876764,-1.950984 5.761992,-4.088292 8.141488,-6.515764 1.616559,-1.649078 2.963017,-3.489736 4.097964,-5.39633 1.503692,-2.52609 2.69023,-5.263212 3.544619,-7.92587 1.10103,-3.431228 2.456069,-6.768151 3.688143,-10.181937 3.740248,-10.363549 11.667129,-18.20604 20.787343,-24.591464 4.871658,-3.41091 14.349427,-6.348381 17.152525,-6.647492 0,0 -1.837007,3.531331 -4.310184,5.751027 -2.473167,2.219648 -7.717322,5.598787 -11.016303,6.687217 3.416458,0.591701 9.031525,-1.100026 9.031525,-1.100026 0,0 -3.652144,3.149418 -4.156043,3.486958 -0.559174,0.336725 -6.194736,4.152932 -7.492185,4.472839 2.312039,0.526293 11.155651,0.606701 11.155651,0.606701 0,0 -5.661318,4.154371 -9.677798,6.06662 0.607961,0.0081 11.256033,-1.962564 18.003229,-7.817574 1.932624,-1.677064 1.739588,-4.309963 1.739588,-4.309963 0,0 -1.907001,2.201774 -5.24669,2.682448 -5.385582,0.775087 -6.743075,-0.09833 -6.743075,-0.09833 0,0 4.719539,-1.126764 12.614675,-6.418152 6.016353,-4.032178 5.79698,-8.389293 5.79698,-8.389293 0,0 -0.498993,1.628953 -3.59751,3.149991 -2.460982,1.208034 -7.335018,2.01125 -7.335018,2.01125 0,0 4.049531,-1.578889 8.243088,-7.540699 C 86.227664,6.1739224 86.233299,1.9289568e-4 86.233299,1.9289568e-4 Z"
         id="path8306-3-5-3-5-7-4-9-2-4-2-8-3-7-2-2-1-1-2"
         inkscape:connector-curvature="0"
         sodipodi:nodetypes="cscsccssacaaassaccccccccscscscsczc"
         inkscape:export-xdpi="96"
         inkscape:export-ydpi="96"
         inkscape:export-filename="C:\Users\attil\v2.png"
         inkscape:transform-center-x="-40.639427"
         inkscape:transform-center-y="-40.581729" />
      <path
         id="rect9-14-5-4-1"
         style="fill:#0094d8;fill-opacity:1;stroke:none;stroke-width:1.91675"
         d="m 47.907389,57.488866 v 28.744433 h 4.790738 v -9.581477 l 3.606646,-2.60755 13.686418,12.189027 h 6.660631 V 85.411092 L 60.063525,70.963044 76.651822,57.488866 H 69.465713 L 52.698127,70.423861 V 57.488866 Z"
         sodipodi:nodetypes="cccccccccccccc" />
      <path
         id="rect9-1-1-8-9-3"
         style="fill:#0094d8;fill-opacity:1;stroke:none;stroke-width:1.91675"
         d="m 110.18699,57.488866 v 28.744433 h 4.79074 V 61.66933 l 16.76759,24.563969 h 7.18611 V 57.488866 h -4.79074 V 81.781155 L 117.3731,57.488866 Z"
         sodipodi:nodetypes="ccccccccccc" />
      <path
         id="path12-5-6-5"
         style="fill:#0094d8;fill-opacity:1;stroke:none;stroke-width:20.6279;stroke-dasharray:none;stroke-opacity:1"
         d="m 91.024038,57.488866 c -7.939564,-8e-5 -14.372295,6.432653 -14.372216,14.372217 7.8e-5,7.939452 6.432764,14.372296 14.372216,14.372216 7.939338,-8.3e-5 14.372132,-6.432878 14.372212,-14.372216 8e-5,-7.939449 -6.432763,-14.372134 -14.372212,-14.372217 z m 0,4.790739 c 5.292911,5.3e-5 9.581452,4.288567 9.581482,9.581478 -6e-5,5.292891 -4.288591,9.581424 -9.581482,9.581477 -5.293004,1.07e-4 -9.581422,-4.288473 -9.581478,-9.581477 2.6e-5,-5.293024 4.288454,-9.581585 9.581478,-9.581478 z"
         sodipodi:nodetypes="sssssccccc" />
      <path
         id="path12-2-6-43-3-9"
         style="fill:#0094d8;fill-opacity:1;stroke:none;stroke-width:20.6279;stroke-dasharray:none;stroke-opacity:1"
         d="m 143.72217,57.488866 v 28.744433 h 14.3721 V 81.309154 L 148.5129,81.44256 V 62.279486 l 9.58137,-0.137916 v -4.791834 z m 14.37233,0 v 4.790859 c 5.2929,4.7e-5 9.58131,4.288461 9.58136,9.581358 -5e-5,5.292898 -4.28846,9.58143 -9.58136,9.581477 v 4.790739 c 7.93935,-7.1e-5 14.37202,-6.432871 14.3721,-14.372216 5e-5,-7.939438 -6.43266,-14.372146 -14.3721,-14.372217 z"
         sodipodi:nodetypes="ccccccccccccccsc" />
      <path
         id="path12-2-6-4-1-7-8"
         style="fill:#0094d8;fill-opacity:1;stroke:none;stroke-width:20.6279;stroke-dasharray:none;stroke-opacity:1"
         d="m 206.00177,57.488866 h -4.79062 v 14.372098 h 4.79062 z m 0,14.372336 h -4.79085 c -5e-5,5.292894 -4.28848,9.581305 -9.58137,9.581358 -5.2929,-4.7e-5 -9.58142,-4.28846 -9.58147,-9.581358 h -4.79074 c 8e-5,7.939341 6.43287,14.372021 14.37221,14.372097 7.93943,5.6e-5 14.37214,-6.432662 14.37222,-14.372097 z M 182.04808,57.488866 h -4.79074 v 14.372098 h 4.79074 z"
         sodipodi:nodetypes="ccccccccccscccccc" />
    </g>
  </g>
</svg>
